<svg width="36" height="35" viewBox="0 0 36 35" fill="none" xmlns="http://www.w3.org/2000/svg">
<path d="M33.8125 0.703125H2.1875C1.42695 0.703125 0.8125 1.30361 0.8125 2.04688V32.9531C0.8125 33.6964 1.42695 34.2969 2.1875 34.2969H33.8125C34.573 34.2969 35.1875 33.6964 35.1875 32.9531V2.04688C35.1875 1.30361 34.573 0.703125 33.8125 0.703125ZM32.4375 31.6094H24.527V21.2877H28.9957L29.666 16.2192H24.527V12.9816C24.527 11.5119 24.9437 10.5125 27.0965 10.5125H29.8422V5.97734C29.3652 5.91436 27.7367 5.77578 25.8375 5.77578C21.8758 5.77578 19.1645 8.13994 19.1645 12.4777V16.215H14.6871V21.2835H19.1688V31.6094H3.5625V3.39062H32.4375V31.6094Z" fill="black"/>
</svg>
