<svg width="35" height="35" viewBox="0 0 35 35" fill="none" xmlns="http://www.w3.org/2000/svg">
<path d="M17.4996 8.88777C12.7335 8.88777 8.88699 12.7343 8.88699 17.5004C8.88699 22.2665 12.7335 26.113 17.4996 26.113C22.2657 26.113 26.1122 22.2665 26.1122 17.5004C26.1122 12.7343 22.2657 8.88777 17.4996 8.88777ZM17.4996 23.0979C14.4174 23.0979 11.902 20.5826 11.902 17.5004C11.902 14.4181 14.4174 11.9028 17.4996 11.9028C20.5818 11.9028 23.0971 14.4181 23.0971 17.5004C23.0971 20.5826 20.5818 23.0979 17.4996 23.0979ZM26.4649 6.52781C25.3521 6.52781 24.4535 7.42644 24.4535 8.53924C24.4535 9.65203 25.3521 10.5507 26.4649 10.5507C27.5777 10.5507 28.4763 9.65623 28.4763 8.53924C28.4767 8.275 28.4249 8.01329 28.3239 7.76911C28.2229 7.52492 28.0748 7.30305 27.888 7.1162C27.7011 6.92936 27.4792 6.78121 27.2351 6.68025C26.9909 6.57928 26.7292 6.52748 26.4649 6.52781ZM34.2881 17.5004C34.2881 15.1824 34.3091 12.8854 34.1789 10.5717C34.0487 7.88416 33.4356 5.499 31.4704 3.53377C29.501 1.56433 27.12 0.955448 24.4325 0.825272C22.1145 0.695097 19.8176 0.716093 17.5038 0.716093C15.1858 0.716093 12.8888 0.695097 10.5751 0.825272C7.88758 0.955448 5.50242 1.56853 3.53719 3.53377C1.56775 5.5032 0.958866 7.88416 0.82869 10.5717C0.698515 12.8896 0.719511 15.1866 0.719511 17.5004C0.719511 19.8141 0.698515 22.1153 0.82869 24.4291C0.958866 27.1166 1.57195 29.5017 3.53719 31.467C5.50662 33.4364 7.88758 34.0453 10.5751 34.1755C12.893 34.3056 15.19 34.2846 17.5038 34.2846C19.8218 34.2846 22.1187 34.3056 24.4325 34.1755C27.12 34.0453 29.5052 33.4322 31.4704 31.467C33.4398 29.4975 34.0487 27.1166 34.1789 24.4291C34.3133 22.1153 34.2881 19.8183 34.2881 17.5004ZM30.5928 27.4021C30.2862 28.1664 29.9167 28.7375 29.3246 29.3254C28.7325 29.9175 28.1656 30.287 27.4013 30.5935C25.1926 31.4712 19.9477 31.2738 17.4996 31.2738C15.0514 31.2738 9.80242 31.4712 7.59363 30.5977C6.82937 30.2912 6.25828 29.9217 5.67039 29.3296C5.0783 28.7375 4.70877 28.1706 4.40223 27.4063C3.52879 25.1933 3.72615 19.9485 3.72615 17.5004C3.72615 15.0522 3.52879 9.8032 4.40223 7.59441C4.70877 6.83016 5.0783 6.25906 5.67039 5.67117C6.26248 5.08328 6.82937 4.70955 7.59363 4.40301C9.80242 3.52957 15.0514 3.72693 17.4996 3.72693C19.9477 3.72693 25.1968 3.52957 27.4055 4.40301C28.1698 4.70955 28.7409 5.07908 29.3288 5.67117C29.9209 6.26326 30.2904 6.83016 30.597 7.59441C31.4704 9.8032 31.273 15.0522 31.273 17.5004C31.273 19.9485 31.4704 25.1933 30.5928 27.4021Z" fill="black"/>
</svg>
