<svg width="1116" height="583" viewBox="0 0 1116 583" fill="none" xmlns="http://www.w3.org/2000/svg">
<path d="M483.415 108.909C635.784 46.5343 782.097 10.6169 895.459 2.94669C952.146 -0.888799 1000.54 2.3429 1037.31 12.8232C1074.09 23.3075 1099.08 40.9904 1109.28 65.927C1119.49 90.8635 1114.08 120.99 1095.21 154.258C1076.34 187.514 1044.11 223.75 1001 260.766C914.801 334.789 785.301 411.779 632.932 474.153C480.563 536.527 334.251 572.444 220.888 580.115C164.201 583.95 115.811 580.719 79.0406 570.238C42.2559 559.754 17.2714 542.072 7.06321 517.135C-3.14488 492.199 2.26843 462.072 21.1423 428.803C40.0089 395.547 72.2423 359.311 115.347 322.296C201.547 248.272 331.046 171.283 483.415 108.909Z" stroke="black" stroke-width="2"/>
</svg>
