<svg width="472" height="235" viewBox="0 0 472 235" fill="none" xmlns="http://www.w3.org/2000/svg">
<g filter="url(#filter0_d_14_16)">
<path d="M43.7707 1.19V9.65H14.1607V27.02H40.5307V35.75H14.1607V56.27H43.7707V65H14.1607H9.48074H4.80074V1.19H43.7707ZM96.7653 47.09C96.7653 49.79 96.2253 52.31 95.1453 54.65C94.0653 56.93 92.4753 58.94 90.3753 60.68C86.2353 64.16 80.9253 65.9 74.4453 65.9C69.4053 65.9 64.8453 64.88 60.7653 62.84C56.6853 60.74 53.6853 57.95 51.7653 54.47L59.7753 50.33C60.9753 52.49 62.8653 54.17 65.4453 55.37C68.0853 56.51 71.0853 57.08 74.4453 57.08C83.1453 57.08 87.4953 53.75 87.4953 47.09C87.4953 45.83 87.2553 44.75 86.7753 43.85C86.3553 42.95 85.6953 42.11 84.7953 41.33C82.6353 39.53 78.7653 37.91 73.1853 36.47C69.8253 35.63 66.9753 34.7 64.6353 33.68C62.2953 32.66 60.3453 31.46 58.7853 30.08C55.0053 27.02 53.1153 22.97 53.1153 17.93C53.1153 15.41 53.5953 13.07 54.5553 10.91C55.5753 8.69 56.9853 6.77 58.7853 5.15C60.6453 3.53 62.8053 2.33 65.2653 1.55C67.7853 0.709996 70.5453 0.289996 73.5453 0.289996C77.9253 0.289996 81.9453 1.13 85.6053 2.81C89.3253 4.49 92.1453 6.86 94.0653 9.92L86.7753 14.42C85.0353 12.32 83.0253 10.85 80.7453 10.01C78.4653 9.11 76.0653 8.66 73.5453 8.66C71.7453 8.66 70.0953 8.96 68.5953 9.55999C67.0953 10.16 65.8353 10.88 64.8153 11.72C63.9753 12.44 63.3453 13.34 62.9253 14.42C62.5653 15.44 62.3853 16.55 62.3853 17.75C62.3853 18.53 62.5053 19.34 62.7453 20.18C62.9853 20.96 63.5553 21.8 64.4553 22.7C65.3553 23.54 66.6753 24.38 68.4153 25.22C70.1553 26 72.5253 26.78 75.5253 27.56C79.1253 28.46 82.1553 29.45 84.6153 30.53C87.0753 31.55 89.1453 32.78 90.8253 34.22C94.7853 37.46 96.7653 41.75 96.7653 47.09ZM136.462 57.17C139.942 57.17 143.152 56.33 146.092 54.65C149.092 52.97 151.612 50.75 153.652 47.99L160.222 54.29C157.342 57.71 153.832 60.5 149.692 62.66C145.612 64.82 141.202 65.9 136.462 65.9C132.142 65.9 128.062 65.03 124.222 63.29C120.382 61.55 117.052 59.21 114.232 56.27C111.412 53.27 109.162 49.79 107.482 45.83C105.862 41.81 105.052 37.58 105.052 33.14C105.052 28.64 105.862 24.41 107.482 20.45C109.162 16.49 111.412 13.04 114.232 10.1C117.052 7.1 120.382 4.73 124.222 2.99C128.062 1.25 132.142 0.379995 136.462 0.379995C140.482 0.379995 144.262 1.19 147.802 2.81C151.402 4.37 154.612 6.44 157.432 9.02L151.852 16.13C149.872 14.03 147.562 12.32 144.922 11C142.282 9.62 139.462 8.93 136.462 8.93C133.402 8.93 130.522 9.59 127.822 10.91C125.182 12.17 122.872 13.91 120.892 16.13C118.912 18.35 117.322 20.93 116.122 23.87C114.982 26.75 114.412 29.84 114.412 33.14C114.412 36.44 114.982 39.56 116.122 42.5C117.322 45.38 118.912 47.93 120.892 50.15C122.872 52.31 125.182 54.02 127.822 55.28C130.522 56.54 133.402 57.17 136.462 57.17ZM174.312 65H164.052L190.602 1.19H200.952L227.502 65H217.332L208.962 45.02H182.592L174.312 65ZM186.192 36.38H205.362L195.822 13.34L186.192 36.38ZM259.759 1.19C262.279 1.19 264.649 1.67 266.869 2.63C269.089 3.59 271.009 4.88 272.629 6.5C274.309 8.12 275.629 10.04 276.589 12.26C277.549 14.42 278.029 16.76 278.029 19.28C278.029 21.8 277.549 24.17 276.589 26.39C275.629 28.61 274.309 30.53 272.629 32.15C271.009 33.77 269.089 35.06 266.869 36.02C264.649 36.92 262.279 37.37 259.759 37.37L243.199 37.46V65H233.839V1.19H259.759ZM259.759 28.64C261.019 28.64 262.189 28.4 263.269 27.92C264.409 27.38 265.399 26.69 266.239 25.85C267.079 25.01 267.739 24.02 268.219 22.88C268.699 21.68 268.939 20.42 268.939 19.1C268.939 17.78 268.699 16.55 268.219 15.41C267.739 14.27 267.079 13.28 266.239 12.44C265.399 11.54 264.409 10.85 263.269 10.37C262.189 9.83 261.019 9.55999 259.759 9.55999H243.199V28.64H259.759ZM325.372 1.19V9.65H295.762V27.02H322.132V35.75H295.762V56.27H325.372V65H295.762H291.082H286.402V1.19H325.372ZM371.954 9.65H354.674V1.19H398.684V9.65H381.314V65H371.954V9.65ZM435.895 0.289996C440.215 0.289996 444.295 1.16 448.135 2.89999C451.975 4.64 455.305 7.01 458.125 10.01C461.005 12.95 463.285 16.43 464.965 20.45C466.645 24.41 467.485 28.61 467.485 33.05C467.485 37.55 466.645 41.78 464.965 45.74C463.285 49.7 461.005 53.18 458.125 56.18C455.245 59.12 451.885 61.46 448.045 63.2C444.205 64.94 440.125 65.81 435.805 65.81C431.485 65.81 427.405 64.94 423.565 63.2C419.725 61.46 416.365 59.12 413.485 56.18C410.665 53.18 408.415 49.7 406.735 45.74C405.115 41.78 404.305 37.55 404.305 33.05C404.305 28.61 405.115 24.41 406.735 20.45C408.415 16.43 410.695 12.95 413.575 10.01C416.455 7.01 419.815 4.64 423.655 2.89999C427.495 1.16 431.575 0.289996 435.895 0.289996ZM435.895 56.9C438.955 56.9 441.805 56.3 444.445 55.1C447.145 53.84 449.485 52.13 451.465 49.97C453.445 47.81 455.005 45.29 456.145 42.41C457.285 39.47 457.855 36.35 457.855 33.05C457.855 29.75 457.285 26.66 456.145 23.78C455.005 20.9 453.445 18.38 451.465 16.22C449.485 14.06 447.145 12.38 444.445 11.18C441.805 9.92 438.955 9.29 435.895 9.29C432.835 9.29 429.955 9.92 427.255 11.18C424.615 12.38 422.305 14.06 420.325 16.22C418.345 18.38 416.755 20.9 415.555 23.78C414.415 26.66 413.845 29.75 413.845 33.05C413.845 36.35 414.415 39.47 415.555 42.41C416.755 45.29 418.345 47.81 420.325 49.97C422.305 52.13 424.615 53.84 427.255 55.1C429.955 56.3 432.835 56.9 435.895 56.9ZM105.735 137.968C107.943 138.448 110.823 140.272 108.711 142.768C107.655 144.208 105.639 142.48 106.599 141.136C102.279 139.312 96.9989 139.504 92.2949 139.216C86.5349 138.928 80.6789 139.024 74.8229 139.12C72.2309 139.216 69.7349 139.312 67.1429 139.408C62.4389 148.144 57.5429 156.88 52.9349 165.616C50.4389 170.608 46.5989 178.384 43.2389 185.104C43.2389 185.104 43.3349 185.104 43.4309 185.2C44.0069 185.584 44.1989 186.256 43.9109 186.928C42.5669 189.52 41.2229 192.112 39.8789 194.704C37.8629 198.352 36.0389 202 33.6389 205.456C33.5429 205.648 33.2549 205.936 33.0629 206.128C31.7189 207.28 29.2229 206.224 29.4149 204.112C30.5669 199.408 32.9669 195.28 34.7909 190.864C38.3429 183.184 42.3749 174.736 46.1189 167.056C50.9189 157.84 56.1029 148.72 61.1909 139.6C58.6949 139.696 56.2949 139.792 53.7989 139.984C45.5429 142.672 36.3269 142.672 27.2069 143.056C23.5589 143.056 19.3349 143.536 15.5909 143.152C15.5909 142.96 15.2069 143.44 14.6309 141.904C15.0149 139.888 15.3989 140.656 15.3989 140.368C15.9749 140.176 16.1669 140.176 16.6469 140.08C27.3989 138.928 38.1509 138.16 48.9029 137.68C55.5269 135.856 61.4789 132.592 65.6069 126.928C68.1989 123.664 70.2149 119.632 72.9989 116.368C73.9589 115.312 76.0709 115.024 76.9349 116.656C77.6069 117.904 77.1269 118.672 76.8389 119.728C74.2469 125.488 71.3669 131.248 68.4869 136.816C70.5989 136.816 72.7109 136.72 74.8229 136.624C85.0949 136.624 95.5589 135.952 105.735 137.968ZM60.0389 137.104C60.9029 137.104 61.7669 137.104 62.6309 137.008C63.1109 136.144 63.5909 135.28 64.0709 134.32C62.7269 135.376 61.3829 136.336 60.0389 137.104ZM112.02 165.424C112.308 165.616 112.404 166 112.308 166.384C112.308 166.768 112.116 167.056 111.828 167.344C109.908 168.784 107.892 170.128 105.684 171.28C95.6039 176.56 86.3879 171.184 81.2999 162.736C76.7879 168.976 71.7959 174.928 66.4199 180.4C65.5559 181.456 64.4039 182.32 63.1559 182.8C62.6759 182.896 62.1959 182.704 61.8119 182.32C61.5239 182.128 61.3319 181.744 61.3319 181.36C61.4279 179.92 61.8119 178.48 62.4839 177.232C65.6519 170.896 69.2999 164.848 73.3319 158.992C74.5799 157.552 77.5559 152.176 79.8599 154.096C79.9559 154.192 80.0519 154.288 80.0519 154.48C81.2039 152.848 82.4519 151.12 83.6039 149.488C84.4679 148.336 86.0999 148.144 87.3479 148.912C88.4999 149.776 88.8839 151.312 88.1159 152.56C86.3879 155.344 84.5639 158.032 82.7399 160.72C86.0039 166.48 91.5719 171.664 98.3879 170.896C102.708 170.512 106.644 168.112 110.1 165.232C110.388 164.944 110.772 164.848 111.156 164.848C111.444 164.944 111.828 165.136 112.02 165.424ZM67.9559 172.72C71.3159 167.248 74.8679 161.968 78.5159 156.784C78.4199 156.592 78.4199 156.496 78.3239 156.4C75.5399 159.184 73.5239 162.832 71.4119 166.096C69.8759 168.88 68.1479 171.856 66.6119 174.832C67.0919 174.064 67.5719 173.392 67.9559 172.72ZM148.122 165.04C148.794 165.424 148.986 166.384 148.506 166.96C146.202 170.128 143.61 173.2 140.25 175.408C136.602 177.904 130.938 178.384 128.538 173.872C127.194 171.184 127.002 168.304 125.754 165.712C125.658 165.52 125.562 165.328 125.466 165.232C125.37 165.232 125.37 165.328 125.178 165.424C122.97 167.728 120.762 170.416 118.362 172.528C115.578 174.928 112.794 177.424 109.146 178.672C107.226 179.44 104.538 178.48 104.058 176.272C103.674 174.544 104.25 173.008 104.922 171.76C106.554 169.072 108.474 166.768 110.586 164.56C113.562 161.488 115.962 158.512 119.994 156.688C125.658 154.096 129.786 158.512 130.17 163.984C130.17 164.848 129.594 165.328 128.922 165.424C129.402 167.056 129.69 168.976 130.074 170.32C130.842 175.504 134.97 176.08 139.002 173.488C141.978 171.568 144.378 168.688 146.298 165.52C146.682 164.848 147.45 164.656 148.122 165.04ZM125.178 164.944C125.274 164.944 125.274 164.944 125.274 164.944C125.274 164.944 125.274 164.944 125.178 164.848C125.178 164.848 125.082 164.848 125.178 164.944ZM122.97 162.256C124.218 161.488 125.178 161.296 125.946 161.488C123.834 158.896 121.338 160.816 118.362 163.984C116.826 165.712 115.29 167.536 113.754 169.36C114.138 169.072 114.522 168.784 115.002 168.496C117.306 166.768 120.57 163.792 122.97 162.256ZM193.183 164.848C193.663 165.424 193.759 166.192 193.279 166.768C190.207 170.224 186.751 173.2 182.719 175.408C172.639 180.976 170.431 171.76 169.951 163.792C169.663 161.104 169.663 157.072 168.607 155.44C166.687 156.208 165.055 158.224 163.423 159.952C160.543 163.312 157.663 166.672 154.783 169.936C151.999 173.008 149.503 176.08 146.239 178.672C145.567 179.056 145.279 179.344 144.031 179.44C142.399 179.344 141.055 177.52 141.439 175.888C142.015 173.488 143.743 170.8 144.799 168.592C146.431 165.232 148.639 161.104 149.887 157.648C146.815 158.128 145.375 153.616 148.543 152.464C151.135 151.312 154.975 151.408 155.743 154.864C156.223 158.608 154.015 162.064 152.671 165.136C155.263 162.448 157.759 159.76 160.351 157.168C163.135 154.096 169.951 147.856 172.351 154.864C173.215 157.744 173.023 160.816 173.215 163.6C173.503 166.864 173.119 172.624 176.191 174.256C177.535 174.832 179.647 173.968 181.471 173.008C185.119 171.088 188.479 168.208 191.263 165.04C191.743 164.464 192.607 164.368 193.183 164.848ZM232.616 165.232C233.192 165.808 233.192 166.672 232.616 167.248C225.992 173.392 219.464 179.728 212.936 186.064C206.408 192.4 200.072 198.832 193.736 205.36C187.976 211.024 182.6 216.976 175.976 221.776C175.4 222.16 174.728 222.544 173.768 222.64C171.272 222.736 170.12 220.048 171.368 218.128C182.792 202.96 196.04 189.712 206.984 174.256C208.808 171.376 211.784 168.496 212.168 165.04C211.592 165.136 211.016 165.136 210.44 164.944C209.576 165.232 208.808 165.904 208.04 166.384C204.488 169.072 201.992 172.912 198.536 175.792C195.848 178 193.448 180.4 189.608 180.784C186.056 180.88 184.808 177.328 185.768 174.64C187.496 169.168 191.24 164.944 194.888 160.816C198.44 156.976 203.624 151.312 209.48 154.288C212.552 156.112 213.512 158.8 214.184 161.968C214.28 161.968 214.28 162.064 214.28 162.064C214.952 162.736 215.336 163.6 215.336 164.752C215.24 168.592 211.112 172.912 209.192 175.888C203.144 184.432 195.176 195.088 187.688 205.072C195.656 198.352 203.912 191.248 211.208 184.24C217.832 178.096 224.36 171.76 230.696 165.328C231.176 164.752 232.04 164.752 232.616 165.232ZM192.392 173.68C197.864 170.032 202.184 164.08 208.52 161.68C208.04 160.336 207.176 158.704 205.736 159.28C203.144 160.24 201.032 162.832 199.208 164.848C196.904 167.344 194.12 170.608 192.392 173.68ZM276.797 165.136C277.469 165.52 277.661 166.384 277.181 166.96C274.493 170.992 271.133 174.448 267.005 177.04C259.709 181.936 247.229 182.224 247.229 171.472C245.597 172.816 243.869 174.064 241.949 175.12C236.093 178.672 227.549 178.672 228.605 169.744C229.469 164.464 231.965 160.432 234.845 156.304C235.613 155.056 237.341 154.768 238.589 155.632C239.741 156.496 240.029 158.128 239.261 159.28C237.053 162.736 234.269 166.672 233.501 170.512C233.309 171.376 233.405 172.048 233.501 172.24C233.597 172.432 233.597 172.432 233.693 172.528C238.205 173.488 244.445 168.88 248.285 165.04C249.629 160.816 251.933 156.976 255.005 153.616C255.485 153.136 256.061 152.56 256.925 152.368C258.461 152.08 259.517 153.52 259.325 154.768C258.173 158.896 255.485 162.352 252.989 165.712C252.221 166.576 251.357 167.536 250.493 168.4C250.205 170.032 250.109 171.664 250.205 173.296C250.973 177.616 255.965 178.288 259.709 177.328C266.141 175.792 271.421 170.992 274.973 165.52C275.357 164.848 276.125 164.656 276.797 165.136ZM283.717 159.856C280.549 164.368 274.309 171.664 284.005 172.432C290.821 172.72 297.637 169.552 302.725 165.232C303.301 164.656 304.165 164.752 304.645 165.328C305.221 165.904 305.125 166.864 304.453 167.344C298.309 171.568 291.589 174.832 284.005 175.024C275.365 175.12 273.061 168.496 276.325 161.488C277.573 158.896 279.877 153.808 283.237 156.304C284.293 157.264 284.485 158.8 283.717 159.856ZM288.229 154C287.653 154.672 286.885 155.056 286.021 155.056C285.445 155.056 284.869 154.96 284.389 154.576C283.237 153.712 282.949 151.984 283.813 150.832L285.541 148.432C286.405 147.28 288.133 146.992 289.285 147.856C290.533 148.72 290.821 150.352 289.957 151.6L288.229 154ZM342.832 165.52C343.888 163.984 346.096 165.52 345.136 166.96C340.144 174.256 334.576 181.072 327.856 186.736C324.496 189.52 320.752 192.112 316.432 193.552C311.824 195.28 305.872 194.224 303.28 189.616C300.016 183.472 300.208 175.216 302.032 166.864C301.84 166.096 301.936 165.232 302.608 164.464C305.104 154.864 309.52 145.168 312.688 138.448C314.896 134.224 332.944 98.416 338.032 109.456C338.704 112.432 337.552 115.024 336.88 117.712C330.832 136.528 320.464 153.616 306.64 168.112C306.352 168.4 305.968 168.688 305.68 168.784C301.36 185.776 306.256 200.752 326.32 184.912C332.848 179.44 338.32 172.72 342.832 165.52ZM330.352 118.768C322.192 131.44 314.32 144.688 308.944 158.8C313.072 154.672 316.72 150.16 320.08 145.456C324.976 138.448 329.104 130.864 332.176 122.992C333.328 119.728 334.864 115.888 334.672 112.336C333.136 114.256 331.792 116.656 330.352 118.768ZM350.935 159.856C347.767 164.368 341.527 171.664 351.223 172.432C358.039 172.72 364.855 169.552 369.943 165.232C370.519 164.656 371.383 164.752 371.863 165.328C372.439 165.904 372.343 166.864 371.671 167.344C365.527 171.568 358.807 174.832 351.223 175.024C342.583 175.12 340.279 168.496 343.543 161.488C344.791 158.896 347.095 153.808 350.455 156.304C351.511 157.264 351.703 158.8 350.935 159.856ZM355.447 154C354.871 154.672 354.103 155.056 353.239 155.056C352.663 155.056 352.087 154.96 351.607 154.576C350.455 153.712 350.167 151.984 351.031 150.832L352.759 148.432C353.623 147.28 355.351 146.992 356.503 147.856C357.751 148.72 358.039 150.352 357.175 151.6L355.447 154ZM429.172 137.968C431.38 138.448 434.26 140.272 432.148 142.768C431.092 144.208 429.076 142.48 430.036 141.136C425.716 139.312 420.436 139.504 415.732 139.216C409.972 138.928 404.116 139.024 398.26 139.12C395.668 139.216 393.172 139.312 390.58 139.408C385.876 148.144 380.98 156.88 376.372 165.616C373.876 170.608 370.036 178.384 366.676 185.104C366.676 185.104 366.772 185.104 366.868 185.2C367.444 185.584 367.636 186.256 367.348 186.928C366.004 189.52 364.66 192.112 363.316 194.704C361.3 198.352 359.476 202 357.076 205.456C356.98 205.648 356.692 205.936 356.5 206.128C355.156 207.28 352.66 206.224 352.852 204.112C354.004 199.408 356.404 195.28 358.228 190.864C361.78 183.184 365.812 174.736 369.556 167.056C374.356 157.84 379.54 148.72 384.628 139.6C382.132 139.696 379.732 139.792 377.236 139.984C368.98 142.672 359.764 142.672 350.644 143.056C346.996 143.056 342.772 143.536 339.028 143.152C339.028 142.96 338.644 143.44 338.068 141.904C338.452 139.888 338.836 140.656 338.836 140.368C339.412 140.176 339.604 140.176 340.084 140.08C350.836 138.928 361.588 138.16 372.34 137.68C378.964 135.856 384.916 132.592 389.044 126.928C391.636 123.664 393.652 119.632 396.436 116.368C397.396 115.312 399.508 115.024 400.372 116.656C401.044 117.904 400.564 118.672 400.276 119.728C397.684 125.488 394.804 131.248 391.924 136.816C394.036 136.816 396.148 136.72 398.26 136.624C408.532 136.624 418.996 135.952 429.172 137.968ZM383.476 137.104C384.34 137.104 385.204 137.104 386.068 137.008C386.548 136.144 387.028 135.28 387.508 134.32C386.164 135.376 384.82 136.336 383.476 137.104ZM434.041 164.944C435.769 164.464 436.441 167.152 434.617 167.536C428.377 169.264 422.137 171.472 416.089 173.968C407.545 190.192 396.985 205.648 382.297 216.976C377.401 220.432 368.569 226.672 362.233 223.792C355.513 219.184 364.825 208.624 368.089 204.304C379.225 190.768 393.913 180.88 409.849 173.68C411.289 170.992 412.729 168.304 413.977 165.616C414.265 165.04 414.553 164.368 414.745 163.6C412.345 164.848 410.233 167.056 408.217 169.072C404.953 172.24 401.593 175.6 397.369 177.712C394.777 179.152 390.841 178.768 390.169 175.12C389.881 172.048 391.129 170.224 392.281 168.016C395.161 163.408 398.521 159.664 402.073 156.112C403.129 155.056 404.857 155.056 405.913 156.112C406.969 157.168 406.969 158.896 405.913 159.952C402.937 163.216 399.385 167.056 397.369 170.992C403.609 166.384 410.041 156.304 417.433 157.552C422.137 158.896 420.889 164.848 419.161 168.112C418.777 168.784 418.393 169.552 418.009 170.32C423.289 168.304 428.665 166.48 434.041 164.944ZM379.801 213.808C391.225 203.632 400.153 191.056 407.641 177.712C407.641 177.808 407.545 177.808 407.449 177.808C392.377 185.296 377.881 195.088 367.801 208.72C365.881 211.696 363.673 214.48 362.905 217.936C362.713 218.896 362.713 219.952 363.001 220.528C366.457 224.176 376.825 216.4 379.801 213.808Z" fill="black"/>
</g>
<defs>
<filter id="filter0_d_14_16" x="0.800751" y="0.290009" width="470.684" height="234.382" filterUnits="userSpaceOnUse" color-interpolation-filters="sRGB">
<feFlood flood-opacity="0" result="BackgroundImageFix"/>
<feColorMatrix in="SourceAlpha" type="matrix" values="0 0 0 0 0 0 0 0 0 0 0 0 0 0 0 0 0 0 127 0" result="hardAlpha"/>
<feOffset dy="4"/>
<feGaussianBlur stdDeviation="2"/>
<feComposite in2="hardAlpha" operator="out"/>
<feColorMatrix type="matrix" values="0 0 0 0 0 0 0 0 0 0 0 0 0 0 0 0 0 0 0.25 0"/>
<feBlend mode="normal" in2="BackgroundImageFix" result="effect1_dropShadow_14_16"/>
<feBlend mode="normal" in="SourceGraphic" in2="effect1_dropShadow_14_16" result="shape"/>
</filter>
</defs>
</svg>
