<svg width="39" height="29" viewBox="0 0 39 29" fill="none" xmlns="http://www.w3.org/2000/svg">
<path d="M38.3125 14.3821C38.3125 14.2897 38.3125 14.1848 38.3083 14.063C38.3041 13.7229 38.2957 13.3407 38.2873 12.9334C38.2537 11.7618 38.1949 10.5944 38.1025 9.49424C37.9766 7.97832 37.7918 6.71436 37.5398 5.76533C37.274 4.77494 36.7528 3.87169 36.0284 3.14584C35.3041 2.42 34.4019 1.897 33.412 1.6291C32.2236 1.30996 29.8973 1.1126 26.6219 0.99082C25.064 0.932031 23.3969 0.894238 21.7298 0.873242C21.1461 0.864843 20.6044 0.860645 20.1173 0.856445H18.8827C18.3956 0.860645 17.8539 0.864843 17.2702 0.873242C15.6031 0.894238 13.936 0.932031 12.3781 0.99082C9.10273 1.1168 6.77217 1.31416 5.58799 1.6291C4.59782 1.89634 3.69527 2.41912 2.9708 3.14507C2.24633 3.87101 1.72538 4.77462 1.46016 5.76533C1.204 6.71436 1.02344 7.97832 0.897461 9.49424C0.805078 10.5944 0.746289 11.7618 0.712695 12.9334C0.700098 13.3407 0.695898 13.7229 0.691699 14.063C0.691699 14.1848 0.6875 14.2897 0.6875 14.3821V14.6173C0.6875 14.7097 0.6875 14.8147 0.691699 14.9364C0.695898 15.2766 0.704297 15.6587 0.712695 16.066C0.746289 17.2376 0.805078 18.405 0.897461 19.5052C1.02344 21.0211 1.2082 22.2851 1.46016 23.2341C1.99766 25.2455 3.57656 26.8328 5.58799 27.3703C6.77217 27.6895 9.10273 27.8868 12.3781 28.0086C13.936 28.0674 15.6031 28.1052 17.2702 28.1262C17.8539 28.1346 18.3956 28.1388 18.8827 28.143H20.1173C20.6044 28.1388 21.1461 28.1346 21.7298 28.1262C23.3969 28.1052 25.064 28.0674 26.6219 28.0086C29.8973 27.8826 32.2278 27.6853 33.412 27.3703C35.4234 26.8328 37.0023 25.2497 37.5398 23.2341C37.796 22.2851 37.9766 21.0211 38.1025 19.5052C38.1949 18.405 38.2537 17.2376 38.2873 16.066C38.2999 15.6587 38.3041 15.2766 38.3083 14.9364C38.3083 14.8147 38.3125 14.7097 38.3125 14.6173V14.3821ZM35.2891 14.6005C35.2891 14.6887 35.2891 14.7853 35.2849 14.8986C35.2807 15.2262 35.2723 15.5873 35.2639 15.9778C35.2345 17.0948 35.1757 18.2118 35.0875 19.249C34.9741 20.6012 34.8145 21.7098 34.6172 22.453C34.3568 23.423 33.5926 24.1915 32.6268 24.4477C31.7449 24.6828 29.5235 24.8718 26.5043 24.9852C24.9758 25.0439 23.3297 25.0817 21.6878 25.1027C21.1125 25.1111 20.5792 25.1153 20.1005 25.1153H18.8995L17.3122 25.1027C15.6703 25.0817 14.0284 25.0439 12.4957 24.9852C9.47647 24.8676 7.25088 24.6828 6.37324 24.4477C5.40742 24.1873 4.64316 23.423 4.38281 22.453C4.18545 21.7098 4.02588 20.6012 3.9125 19.249C3.82432 18.2118 3.76973 17.0948 3.73613 15.9778C3.72354 15.5873 3.71934 15.222 3.71514 14.8986C3.71514 14.7853 3.71094 14.6845 3.71094 14.6005V14.3989C3.71094 14.3107 3.71094 14.2142 3.71514 14.1008C3.71934 13.7732 3.72773 13.4121 3.73613 13.0216C3.76553 11.9046 3.82432 10.7876 3.9125 9.75039C4.02588 8.39824 4.18545 7.28965 4.38281 6.54639C4.64316 5.57637 5.40742 4.80791 6.37324 4.55176C7.25508 4.3166 9.47647 4.12764 12.4957 4.01426C14.0242 3.95547 15.6703 3.91768 17.3122 3.89668C17.8875 3.88828 18.4208 3.88408 18.8995 3.88408H20.1005L21.6878 3.89668C23.3297 3.91768 24.9716 3.95547 26.5043 4.01426C29.5235 4.13184 31.7491 4.3166 32.6268 4.55176C33.5926 4.81211 34.3568 5.57637 34.6172 6.54639C34.8145 7.28965 34.9741 8.39824 35.0875 9.75039C35.1757 10.7876 35.2303 11.9046 35.2639 13.0216C35.2765 13.4121 35.2807 13.7774 35.2849 14.1008C35.2849 14.2142 35.2891 14.3149 35.2891 14.3989V14.6005ZM15.7627 20.1267L25.5049 14.4577L15.7627 8.87275V20.1267Z" fill="black"/>
</svg>
